<svg width="512" height="512" version="1.1" xmlns="http://www.w3.org/2000/svg" desc="Created with imagetracer.js version 1.2.6" ><path fill="rgb(0,0,0)" stroke="rgb(0,0,0)" stroke-width="1" opacity="0" d="M 0 0 L 512 0 L 512 314.5 L 511 314.5 Q 508.8 297.2 501 285.5 Q 492.3 271.2 479.5 261 Q 467 251 450.5 245 L 398.5 229 Q 386.1 223.9 378 214.5 L 370 200.5 Q 367.3 192.2 369 179.5 Q 373.3 163.8 384.5 155 Q 393.3 147.8 406.5 145 L 425.5 145 Q 443 149 453 160.5 Q 461.2 169.8 464 184.5 L 469.5 190 Q 473.8 193.7 483.5 192 L 493 184.5 Q 496 180.5 495 172.5 Q 488.1 143.9 467.5 129 Q 456.6 119.9 441.5 115 L 427.5 112 L 404.5 112 Q 368.7 118.2 351 142.5 Q 342.7 153.2 338 167.5 L 336 177.5 L 336 198.5 L 339 211.5 L 346 226.5 L 363.5 246 L 384.5 259 L 443.5 278 Q 457.2 283.3 466 293.5 L 477 311.5 L 479 318.5 L 479 337.5 Q 473.9 356.9 460.5 368 Q 450.4 376.9 435.5 381 L 426.5 383 L 405.5 383 Q 380.2 378.3 366 362.5 Q 357.8 353.2 353 340.5 L 293 193.5 L 282 171.5 Q 267 146 244.5 128 Q 224.1 111.4 196.5 102 L 167.5 96 L 135.5 96 Q 75.6 106.1 43 143.5 Q 26.9 160.4 16 182.5 L 5 211.5 L 0.5 238 L 0 0 Z " /><path fill="rgb(0,0,0)" stroke="rgb(0,0,0)" stroke-width="1" opacity="0" d="M 138.5 129 L 166.5 129 L 181.5 132 L 195.5 137 Q 223 149 241 170.5 Q 252.1 183.9 260 200.5 L 325 359.5 L 339 381.5 L 351.5 394 Q 366.3 406.7 387.5 413 L 402.5 416 L 428.5 416 L 444.5 413 L 464.5 405 Q 481.4 395.9 493 381.5 Q 501.6 371.6 507 358.5 L 511.5 340 L 512 512 L 0 512 L 0 274.5 L 1 274.5 L 2 287.5 L 5 300.5 L 18 333.5 Q 32.5 360.5 54.5 380 Q 76.6 399.4 107.5 410 L 135.5 416 L 168.5 416 L 169.5 415 L 181.5 414 L 199.5 409 L 223.5 398 L 229 393.5 Q 234.1 389.1 232 377.5 L 223.5 368 Q 219.7 365.3 211.5 367 L 188.5 378 L 177.5 381 L 166.5 383 L 138.5 383 L 137.5 382 L 126.5 381 L 105.5 374 Q 80.8 362.2 64 342.5 Q 45.5 322 37 291.5 L 33 271.5 L 33 240.5 L 37 220.5 L 47 194.5 Q 58.8 171.8 77.5 156 Q 89.9 145.4 105.5 138 L 126.5 131 L 137.5 130 L 138.5 129 Z M 267 336 L 265 337 L 256 347 L 256 358 L 257 360 L 267 368 L 278 368 L 280 367 L 288 358 L 288 347 L 287 345 L 278 336 L 267 336 Z " /><path fill="rgb(197,0,25)" stroke="rgb(197,0,25)" stroke-width="1" opacity="0.5333333333333333" d="M 135.5 96 L 147 96.5 L 135.5 97 L 135.5 96 Z " /><path fill="rgb(197,0,25)" stroke="rgb(197,0,25)" stroke-width="1" opacity="0.5333333333333333" d="M 157.5 96 L 168 96.5 L 157.5 97 L 157.5 96 Z " /><path fill="rgb(197,0,25)" stroke="rgb(197,0,25)" stroke-width="1" opacity="0.5333333333333333" d="M 129.5 97 L 134 97.5 L 129.5 98 L 129.5 97 Z " /><path fill="rgb(197,0,25)" stroke="rgb(197,0,25)" stroke-width="1" opacity="0.5333333333333333" d="M 170.5 97 L 176 97.5 L 170.5 98 L 170.5 97 Z " /><path fill="rgb(197,0,25)" stroke="rgb(197,0,25)" stroke-width="1" opacity="0.5333333333333333" d="M 123.5 98 L 127 98.5 L 123.5 99 L 123.5 98 Z " /><path fill="rgb(197,0,25)" stroke="rgb(197,0,25)" stroke-width="1" opacity="0.5333333333333333" d="M 177.5 98 L 181 98.5 L 177.5 99 L 177.5 98 Z " /><path fill="rgb(197,0,25)" stroke="rgb(197,0,25)" stroke-width="1" opacity="0.5333333333333333" d="M 118.5 99 L 121 99.5 L 115.5 101 L 115.5 100 L 118.5 99 Z " /><path fill="rgb(197,0,25)" stroke="rgb(197,0,25)" stroke-width="1" opacity="0.5333333333333333" d="M 182.5 99 L 186 99.5 L 182.5 100 L 182.5 99 Z " /><path fill="rgb(197,0,25)" stroke="rgb(197,0,25)" stroke-width="1" opacity="0.5333333333333333" d="M 187.5 100 L 193 101.5 L 190.5 102 L 187.5 101 L 187.5 100 Z " /><path fill="rgb(197,0,25)" stroke="rgb(197,0,25)" stroke-width="1" opacity="0.5333333333333333" d="M 111.5 101 L 114 101.5 L 111.5 102 L 111.5 101 Z " /><path fill="rgb(197,0,25)" stroke="rgb(197,0,25)" stroke-width="1" opacity="0.5333333333333333" d="M 107.5 102 L 110 102.5 L 105.5 104 L 105.5 103 L 107.5 102 Z " /><path fill="rgb(197,0,25)" stroke="rgb(197,0,25)" stroke-width="1" opacity="0.5333333333333333" d="M 194.5 102 L 202 104.5 L 200.5 105 L 194.5 103 L 194.5 102 Z " /><path fill="rgb(197,0,25)" stroke="rgb(197,0,25)" stroke-width="1" opacity="0.5333333333333333" d="M 102.5 104 L 104 104.5 L 97.5 107 L 97.5 106 L 102.5 104 Z " /><path fill="rgb(197,0,25)" stroke="rgb(197,0,25)" stroke-width="1" opacity="0.5333333333333333" d="M 203.5 105 L 216 110.5 L 214.5 111 L 203.5 106 L 203.5 105 Z " /><path fill="rgb(197,0,25)" stroke="rgb(197,0,25)" stroke-width="1" opacity="0.5333333333333333" d="M 94.5 107 L 96 107.5 L 92.5 109 L 92.5 108 L 94.5 107 Z " /><path fill="rgb(197,0,25)" stroke="rgb(197,0,25)" stroke-width="1" opacity="0.5333333333333333" d="M 88.5 110 L 87.5 112 Q 61.3 123.8 43.5 144 L 54.5 132 Q 69.4 118.9 88.5 110 Z " /><path fill="rgb(197,0,25)" stroke="rgb(197,0,25)" stroke-width="1" opacity="0.5333333333333333" d="M 217.5 111 Q 237 120 251 134.5 L 244.5 129 L 225.5 116 L 218.5 113 L 217.5 111 Z " /><path fill="rgb(197,0,25)" stroke="rgb(197,0,25)" stroke-width="1" opacity="0.5333333333333333" d="M 404.5 112 L 412 112.5 L 404.5 113 L 404.5 112 Z " /><path fill="rgb(197,0,25)" stroke="rgb(197,0,25)" stroke-width="1" opacity="0.5333333333333333" d="M 423.5 112 L 428 112.5 L 423.5 113 L 423.5 112 Z " /><path fill="rgb(197,0,25)" stroke="rgb(197,0,25)" stroke-width="1" opacity="0.5333333333333333" d="M 398.5 113 L 402 113.5 L 398.5 114 L 398.5 113 Z " /><path fill="rgb(197,0,25)" stroke="rgb(197,0,25)" stroke-width="1" opacity="0.5333333333333333" d="M 430.5 113 L 434 113.5 L 430.5 114 L 430.5 113 Z " /><path fill="rgb(197,0,25)" stroke="rgb(197,0,25)" stroke-width="1" opacity="0.5333333333333333" d="M 394.5 114 L 397 114.5 L 394.5 115 L 394.5 114 Z " /><path fill="rgb(197,0,25)" stroke="rgb(197,0,25)" stroke-width="1" opacity="0.5333333333333333" d="M 435.5 114 L 438 114.5 L 435.5 115 L 435.5 114 Z " /><path fill="rgb(197,0,25)" stroke="rgb(197,0,25)" stroke-width="1" opacity="0.5333333333333333" d="M 439.5 115 L 457.5 122 Q 471.2 130.3 481 142.5 L 492 161.5 L 494 170.5 L 493 170.5 Q 486.8 143.7 467.5 130 L 457.5 123 L 439.5 116 L 439.5 115 Z " /><path fill="rgb(197,0,25)" stroke="rgb(197,0,25)" stroke-width="1" opacity="0.5333333333333333" d="M 382.5 118 L 384 118.5 Q 364.1 126.6 352 142.5 L 341 161.5 L 338.5 170 L 338 167.5 Q 346.3 142.3 365.5 128 L 382.5 118 Z " /><path fill="rgb(197,0,25)" stroke="rgb(197,0,25)" stroke-width="1" opacity="0.5333333333333333" d="M 140.5 128 L 165 128.5 L 140.5 129 L 140.5 128 Z " /><path fill="rgb(197,0,25)" stroke="rgb(197,0,25)" stroke-width="1" opacity="0.5333333333333333" d="M 133.5 129 L 138 129.5 L 133.5 130 L 133.5 129 Z " /><path fill="rgb(197,0,25)" stroke="rgb(197,0,25)" stroke-width="1" opacity="0.5333333333333333" d="M 167.5 129 L 172 129.5 L 167.5 130 L 167.5 129 Z " /><path fill="rgb(197,0,25)" stroke="rgb(197,0,25)" stroke-width="1" opacity="0.5333333333333333" d="M 127.5 130 L 131 130.5 L 127.5 131 L 127.5 130 Z " /><path fill="rgb(197,0,25)" stroke="rgb(197,0,25)" stroke-width="1" opacity="0.5333333333333333" d="M 173.5 130 L 177 130.5 L 173.5 131 L 173.5 130 Z " /><path fill="rgb(197,0,25)" stroke="rgb(197,0,25)" stroke-width="1" opacity="0.5333333333333333" d="M 123.5 131 L 126 131.5 L 120.5 133 L 120.5 132 L 123.5 131 Z " /><path fill="rgb(197,0,25)" stroke="rgb(197,0,25)" stroke-width="1" opacity="0.5333333333333333" d="M 178.5 131 L 181 131.5 L 178.5 132 L 178.5 131 Z " /><path fill="rgb(197,0,25)" stroke="rgb(197,0,25)" stroke-width="1" opacity="0.5333333333333333" d="M 116.5 133 L 119 133.5 L 106.5 138 L 106.5 137 L 116.5 133 Z " /><path fill="rgb(197,0,25)" stroke="rgb(197,0,25)" stroke-width="1" opacity="0.5333333333333333" d="M 185.5 133 L 190 134.5 L 188.5 135 L 185.5 134 L 185.5 133 Z " /><path fill="rgb(197,0,25)" stroke="rgb(197,0,25)" stroke-width="1" opacity="0.5333333333333333" d="M 191.5 135 Q 222.4 146.1 241 169.5 L 225.5 155 L 211.5 145 L 191.5 136 L 191.5 135 Z " /><path fill="rgb(197,0,25)" stroke="rgb(197,0,25)" stroke-width="1" opacity="0.5333333333333333" d="M 104.5 138 L 103.5 140 Q 88.5 145.5 78.5 156 L 82.5 151 L 104.5 138 Z " /><path fill="rgb(197,0,25)" stroke="rgb(197,0,25)" stroke-width="1" opacity="0.5333333333333333" d="M 408.5 144 L 425 144.5 L 408.5 145 L 408.5 144 Z " /><path fill="rgb(197,0,25)" stroke="rgb(197,0,25)" stroke-width="1" opacity="0.5333333333333333" d="M 403.5 145 L 406 145.5 L 403.5 146 L 403.5 145 Z " /><path fill="rgb(197,0,25)" stroke="rgb(197,0,25)" stroke-width="1" opacity="0.5333333333333333" d="M 426.5 145 L 429 145.5 L 426.5 146 L 426.5 145 Z " /><path fill="rgb(197,0,25)" stroke="rgb(197,0,25)" stroke-width="1" opacity="0.5333333333333333" d="M 41.5 146 L 37 151.5 L 20.5 176 L 21 174.5 Q 28.9 157.9 41.5 146 Z " /><path fill="rgb(197,0,25)" stroke="rgb(197,0,25)" stroke-width="1" opacity="0.5333333333333333" d="M 262.5 146 Q 276.7 160.3 286 179.5 L 284 178.5 Q 274.7 159.7 262.5 146 Z " /><path fill="rgb(197,0,25)" stroke="rgb(197,0,25)" stroke-width="1" opacity="0.5333333333333333" d="M 399.5 146 L 402 146.5 Q 387 150.5 378.5 161 L 384.5 154 L 399.5 146 Z " /><path fill="rgb(197,0,25)" stroke="rgb(197,0,25)" stroke-width="1" opacity="0.5333333333333333" d="M 430.5 146 L 437 148.5 L 435.5 149 L 430.5 147 L 430.5 146 Z " /><path fill="rgb(197,0,25)" stroke="rgb(197,0,25)" stroke-width="1" opacity="0.5333333333333333" d="M 438.5 149 L 448 155.5 L 444.5 153 L 438.5 150 L 438.5 149 Z " /><path fill="rgb(197,0,25)" stroke="rgb(197,0,25)" stroke-width="1" opacity="0.5333333333333333" d="M 76.5 156 L 64.5 169 L 76.5 156 Z " /><path fill="rgb(197,0,25)" stroke="rgb(197,0,25)" stroke-width="1" opacity="0.5333333333333333" d="M 449.5 156 L 452.5 160 L 449.5 156 Z " /><path fill="rgb(197,0,25)" stroke="rgb(197,0,25)" stroke-width="1" opacity="0.5333333333333333" d="M 453.5 161 Q 459.9 166.1 462 175.5 L 461 175.5 Q 458.6 166.1 453.5 161 Z " /><path fill="rgb(197,0,25)" stroke="rgb(197,0,25)" stroke-width="1" opacity="0.5333333333333333" d="M 377.5 162 L 375 165.5 L 371.5 173 L 371 171.5 L 377.5 162 Z " /><path fill="rgb(197,0,25)" stroke="rgb(197,0,25)" stroke-width="1" opacity="0.5333333333333333" d="M 63.5 170 L 59 175.5 L 46.5 196 L 46 194.5 L 58 175.5 L 63.5 170 Z " /><path fill="rgb(197,0,25)" stroke="rgb(197,0,25)" stroke-width="1" opacity="0.5333333333333333" d="M 241.5 171 Q 253 183 260 199.5 L 259 199.5 Q 251.7 183 241.5 171 Z " /><path fill="rgb(197,0,25)" stroke="rgb(197,0,25)" stroke-width="1" opacity="0.5333333333333333" d="M 337.5 171 L 338 174.5 L 337 174.5 L 337.5 171 Z " /><path fill="rgb(197,0,25)" stroke="rgb(197,0,25)" stroke-width="1" opacity="0.5333333333333333" d="M 494.5 172 L 495 179.5 L 494 179.5 L 494.5 172 Z " /><path fill="rgb(197,0,25)" stroke="rgb(197,0,25)" stroke-width="1" opacity="0.5333333333333333" d="M 19.5 177 L 19 178.5 L 16.5 184 L 16 182.5 L 19.5 177 Z " /><path fill="rgb(197,0,25)" stroke="rgb(197,0,25)" stroke-width="1" opacity="0.5333333333333333" d="M 336.5 177 L 337 183.5 L 336 183.5 L 336.5 177 Z " /><path fill="rgb(197,0,25)" stroke="rgb(197,0,25)" stroke-width="1" opacity="0.5333333333333333" d="M 463.5 180 Q 464.8 186.8 470 189.5 L 464 184.5 L 463.5 180 Z " /><path fill="rgb(197,0,25)" stroke="rgb(197,0,25)" stroke-width="1" opacity="0.5333333333333333" d="M 368.5 181 L 369 195.5 L 368 195.5 L 368.5 181 Z " /><path fill="rgb(197,0,25)" stroke="rgb(197,0,25)" stroke-width="1" opacity="0.5333333333333333" d="M 493.5 181 L 494 182.5 L 487.5 190 L 485.5 191 L 486.5 189 L 492 184.5 L 493.5 181 Z " /><path fill="rgb(197,0,25)" stroke="rgb(197,0,25)" stroke-width="1" opacity="0.5333333333333333" d="M 287.5 183 L 295 199.5 L 294 199.5 L 287 184.5 L 287.5 183 Z " /><path fill="rgb(197,0,25)" stroke="rgb(197,0,25)" stroke-width="1" opacity="0.5333333333333333" d="M 15.5 185 L 16 186.5 L 12.5 193 L 12 191.5 L 15.5 185 Z " /><path fill="rgb(197,0,25)" stroke="rgb(197,0,25)" stroke-width="1" opacity="0.5333333333333333" d="M 473.5 191 L 476 191.5 L 473.5 192 L 473.5 191 Z " /><path fill="rgb(197,0,25)" stroke="rgb(197,0,25)" stroke-width="1" opacity="0.5333333333333333" d="M 336.5 192 L 337 198.5 L 336 198.5 L 336.5 192 Z " /><path fill="rgb(197,0,25)" stroke="rgb(197,0,25)" stroke-width="1" opacity="0.5333333333333333" d="M 11.5 194 L 12 195.5 L 8.5 204 L 8 202.5 L 11.5 194 Z " /><path fill="rgb(197,0,25)" stroke="rgb(197,0,25)" stroke-width="1" opacity="0.5333333333333333" d="M 45.5 197 L 46 198.5 L 42.5 205 L 42 203.5 L 45.5 197 Z " /><path fill="rgb(197,0,25)" stroke="rgb(197,0,25)" stroke-width="1" opacity="0.5333333333333333" d="M 369.5 197 L 370 199.5 L 369 199.5 L 369.5 197 Z " /><path fill="rgb(197,0,25)" stroke="rgb(197,0,25)" stroke-width="1" opacity="0.5333333333333333" d="M 337.5 200 L 338 203.5 L 337 203.5 L 337.5 200 Z " /><path fill="rgb(197,0,25)" stroke="rgb(197,0,25)" stroke-width="1" opacity="0.5333333333333333" d="M 260.5 201 L 263 206.5 L 262 206.5 L 260.5 201 Z " /><path fill="rgb(197,0,25)" stroke="rgb(197,0,25)" stroke-width="1" opacity="0.5333333333333333" d="M 295.5 201 L 300 211.5 L 299 211.5 L 295.5 201 Z " /><path fill="rgb(197,0,25)" stroke="rgb(197,0,25)" stroke-width="1" opacity="0.5333333333333333" d="M 370.5 201 L 378 213.5 L 375 211.5 L 370 202.5 L 370.5 201 Z " /><path fill="rgb(197,0,25)" stroke="rgb(197,0,25)" stroke-width="1" opacity="0.5333333333333333" d="M 41.5 206 L 42 207.5 L 37.5 220 L 37 217.5 L 41.5 206 Z " /><path fill="rgb(197,0,25)" stroke="rgb(197,0,25)" stroke-width="1" opacity="0.5333333333333333" d="M 338.5 206 L 341 213.5 L 340 213.5 L 338.5 206 Z " /><path fill="rgb(197,0,25)" stroke="rgb(197,0,25)" stroke-width="1" opacity="0.5333333333333333" d="M 6.5 208 L 7 210.5 L 4.5 219 L 4 215.5 L 6.5 208 Z " /><path fill="rgb(197,0,25)" stroke="rgb(197,0,25)" stroke-width="1" opacity="0.5333333333333333" d="M 264.5 210 L 266 213.5 L 265 213.5 L 264.5 210 Z " /><path fill="rgb(197,0,25)" stroke="rgb(197,0,25)" stroke-width="1" opacity="0.5333333333333333" d="M 300.5 213 L 305 223.5 L 304 223.5 L 300.5 213 Z " /><path fill="rgb(197,0,25)" stroke="rgb(197,0,25)" stroke-width="1" opacity="0.5333333333333333" d="M 266.5 215 L 268 218.5 L 267 218.5 L 266.5 215 Z " /><path fill="rgb(197,0,25)" stroke="rgb(197,0,25)" stroke-width="1" opacity="0.5333333333333333" d="M 341.5 215 Q 348.8 234.2 364 245.5 L 352 234.5 Q 344.2 226.4 341.5 215 Z " /><path fill="rgb(197,0,25)" stroke="rgb(197,0,25)" stroke-width="1" opacity="0.5333333333333333" d="M 379.5 216 L 390 224.5 L 387.5 223 Q 381.4 220.8 379.5 216 Z " /><path fill="rgb(197,0,25)" stroke="rgb(197,0,25)" stroke-width="1" opacity="0.5333333333333333" d="M 3.5 220 L 4 222.5 L 3 222.5 L 3.5 220 Z " /><path fill="rgb(197,0,25)" stroke="rgb(197,0,25)" stroke-width="1" opacity="0.5333333333333333" d="M 36.5 221 L 37 223.5 L 36 223.5 L 36.5 221 Z " /><path fill="rgb(197,0,25)" stroke="rgb(197,0,25)" stroke-width="1" opacity="0.5333333333333333" d="M 269.5 222 L 271 225.5 L 270 225.5 L 269.5 222 Z " /><path fill="rgb(197,0,25)" stroke="rgb(197,0,25)" stroke-width="1" opacity="0.5333333333333333" d="M 2.5 224 L 3 228.5 L 2 228.5 L 2.5 224 Z " /><path fill="rgb(197,0,25)" stroke="rgb(197,0,25)" stroke-width="1" opacity="0.5333333333333333" d="M 35.5 225 L 36 227.5 L 35 227.5 L 35.5 225 Z " /><path fill="rgb(197,0,25)" stroke="rgb(197,0,25)" stroke-width="1" opacity="0.5333333333333333" d="M 305.5 225 L 307 228.5 L 306 228.5 L 305.5 225 Z " /><path fill="rgb(197,0,25)" stroke="rgb(197,0,25)" stroke-width="1" opacity="0.5333333333333333" d="M 271.5 227 L 273 230.5 L 272 230.5 L 271.5 227 Z " /><path fill="rgb(197,0,25)" stroke="rgb(197,0,25)" stroke-width="1" opacity="0.5333333333333333" d="M 395.5 227 L 398 228.5 L 396.5 229 L 395.5 227 Z " /><path fill="rgb(197,0,25)" stroke="rgb(197,0,25)" stroke-width="1" opacity="0.5333333333333333" d="M 34.5 229 L 35 232.5 L 34 232.5 L 34.5 229 Z " /><path fill="rgb(197,0,25)" stroke="rgb(197,0,25)" stroke-width="1" opacity="0.5333333333333333" d="M 307.5 230 L 310 235.5 L 309 235.5 L 307.5 230 Z " /><path fill="rgb(197,0,25)" stroke="rgb(197,0,25)" stroke-width="1" opacity="0.5333333333333333" d="M 1.5 231 L 2 235.5 L 1 235.5 L 1.5 231 Z " /><path fill="rgb(197,0,25)" stroke="rgb(197,0,25)" stroke-width="1" opacity="0.5333333333333333" d="M 273.5 232 L 275 235.5 L 274 235.5 L 273.5 232 Z " /><path fill="rgb(197,0,25)" stroke="rgb(197,0,25)" stroke-width="1" opacity="0.5333333333333333" d="M 414.5 234 L 441 242.5 L 438.5 243 L 414.5 235 L 414.5 234 Z " /><path fill="rgb(197,0,25)" stroke="rgb(197,0,25)" stroke-width="1" opacity="0.5333333333333333" d="M 33.5 235 L 34 239.5 L 33 239.5 L 33.5 235 Z " /><path fill="rgb(197,0,25)" stroke="rgb(197,0,25)" stroke-width="1" opacity="0.5333333333333333" d="M 310.5 237 L 312 240.5 L 311 240.5 L 310.5 237 Z " /><path fill="rgb(197,0,25)" stroke="rgb(197,0,25)" stroke-width="1" opacity="0.5333333333333333" d="M 0.5 238 L 1 250.5 L 0 250.5 L 0.5 238 Z " /><path fill="rgb(197,0,25)" stroke="rgb(197,0,25)" stroke-width="1" opacity="0.5333333333333333" d="M 276.5 239 L 278 242.5 L 277 242.5 L 276.5 239 Z " /><path fill="rgb(197,0,25)" stroke="rgb(197,0,25)" stroke-width="1" opacity="0.5333333333333333" d="M 32.5 241 L 33 270.5 L 32 270.5 L 32.5 241 Z " /><path fill="rgb(197,0,25)" stroke="rgb(197,0,25)" stroke-width="1" opacity="0.5333333333333333" d="M 312.5 242 L 315 247.5 L 314 247.5 L 312.5 242 Z " /><path fill="rgb(197,0,25)" stroke="rgb(197,0,25)" stroke-width="1" opacity="0.5333333333333333" d="M 278.5 244 L 280 247.5 L 279 247.5 L 278.5 244 Z " /><path fill="rgb(197,0,25)" stroke="rgb(197,0,25)" stroke-width="1" opacity="0.5333333333333333" d="M 448.5 245 L 453 246.5 L 451.5 247 L 448.5 246 L 448.5 245 Z " /><path fill="rgb(197,0,25)" stroke="rgb(197,0,25)" stroke-width="1" opacity="0.5333333333333333" d="M 365.5 246 Q 373.4 253.6 384.5 258 L 420 269.5 L 417.5 270 L 384.5 259 L 368.5 250 L 365.5 246 Z " /><path fill="rgb(197,0,25)" stroke="rgb(197,0,25)" stroke-width="1" opacity="0.5333333333333333" d="M 454.5 247 L 462 250.5 L 460.5 251 L 454.5 248 L 454.5 247 Z " /><path fill="rgb(197,0,25)" stroke="rgb(197,0,25)" stroke-width="1" opacity="0.5333333333333333" d="M 315.5 249 L 317 252.5 L 316 252.5 L 315.5 249 Z " /><path fill="rgb(197,0,25)" stroke="rgb(197,0,25)" stroke-width="1" opacity="0.5333333333333333" d="M 281.5 251 L 283 254.5 L 282 254.5 L 281.5 251 Z " /><path fill="rgb(197,0,25)" stroke="rgb(197,0,25)" stroke-width="1" opacity="0.5333333333333333" d="M 465.5 252 Q 482.6 260.9 494 275.5 L 507 297.5 L 510 308.5 L 509 308.5 Q 501.5 279 480.5 263 L 466.5 254 L 465.5 252 Z " /><path fill="rgb(197,0,25)" stroke="rgb(197,0,25)" stroke-width="1" opacity="0.5333333333333333" d="M 317.5 254 L 319 257.5 L 318 257.5 L 317.5 254 Z " /><path fill="rgb(197,0,25)" stroke="rgb(197,0,25)" stroke-width="1" opacity="0.5333333333333333" d="M 283.5 256 L 285 259.5 L 284 259.5 L 283.5 256 Z " /><path fill="rgb(197,0,25)" stroke="rgb(197,0,25)" stroke-width="1" opacity="0.5333333333333333" d="M 0.5 261 L 1 273.5 L 0 273.5 L 0.5 261 Z " /><path fill="rgb(197,0,25)" stroke="rgb(197,0,25)" stroke-width="1" opacity="0.5333333333333333" d="M 285.5 261 L 288 266.5 L 287 266.5 L 285.5 261 Z " /><path fill="rgb(197,0,25)" stroke="rgb(197,0,25)" stroke-width="1" opacity="0.5333333333333333" d="M 320.5 261 L 322 264.5 L 321 264.5 L 320.5 261 Z " /><path fill="rgb(197,0,25)" stroke="rgb(197,0,25)" stroke-width="1" opacity="0.5333333333333333" d="M 322.5 266 L 324 269.5 L 323 269.5 L 322.5 266 Z " /><path fill="rgb(197,0,25)" stroke="rgb(197,0,25)" stroke-width="1" opacity="0.5333333333333333" d="M 288.5 268 L 290 271.5 L 289 271.5 L 288.5 268 Z " /><path fill="rgb(197,0,25)" stroke="rgb(197,0,25)" stroke-width="1" opacity="0.5333333333333333" d="M 33.5 272 L 34 276.5 L 33 276.5 L 33.5 272 Z " /><path fill="rgb(197,0,25)" stroke="rgb(197,0,25)" stroke-width="1" opacity="0.5333333333333333" d="M 290.5 273 L 292 276.5 L 291 276.5 L 290.5 273 Z " /><path fill="rgb(197,0,25)" stroke="rgb(197,0,25)" stroke-width="1" opacity="0.5333333333333333" d="M 325.5 273 L 327 276.5 L 326 276.5 L 325.5 273 Z " /><path fill="rgb(197,0,25)" stroke="rgb(197,0,25)" stroke-width="1" opacity="0.5333333333333333" d="M 1.5 276 L 2 280.5 L 1 280.5 L 1.5 276 Z " /><path fill="rgb(197,0,25)" stroke="rgb(197,0,25)" stroke-width="1" opacity="0.5333333333333333" d="M 439.5 276 L 443 277.5 L 441.5 278 L 439.5 276 Z " /><path fill="rgb(197,0,25)" stroke="rgb(197,0,25)" stroke-width="1" opacity="0.5333333333333333" d="M 292.5 278 L 295 283.5 L 294 283.5 L 292.5 278 Z " /><path fill="rgb(197,0,25)" stroke="rgb(197,0,25)" stroke-width="1" opacity="0.5333333333333333" d="M 327.5 278 L 329 281.5 L 328 281.5 L 327.5 278 Z " /><path fill="rgb(197,0,25)" stroke="rgb(197,0,25)" stroke-width="1" opacity="0.5333333333333333" d="M 444.5 278 Q 453.9 281.1 460 287.5 L 457.5 286 L 444.5 279 L 444.5 278 Z " /><path fill="rgb(197,0,25)" stroke="rgb(197,0,25)" stroke-width="1" opacity="0.5333333333333333" d="M 34.5 279 L 35 282.5 L 34 282.5 L 34.5 279 Z " /><path fill="rgb(197,0,25)" stroke="rgb(197,0,25)" stroke-width="1" opacity="0.5333333333333333" d="M 2.5 283 L 3 287.5 L 2 287.5 L 2.5 283 Z " /><path fill="rgb(197,0,25)" stroke="rgb(197,0,25)" stroke-width="1" opacity="0.5333333333333333" d="M 35.5 284 L 36 286.5 L 35 286.5 L 35.5 284 Z " /><path fill="rgb(197,0,25)" stroke="rgb(197,0,25)" stroke-width="1" opacity="0.5333333333333333" d="M 295.5 285 L 297 288.5 L 296 288.5 L 295.5 285 Z " /><path fill="rgb(197,0,25)" stroke="rgb(197,0,25)" stroke-width="1" opacity="0.5333333333333333" d="M 36.5 288 L 37 290.5 L 36 290.5 L 36.5 288 Z " /><path fill="rgb(197,0,25)" stroke="rgb(197,0,25)" stroke-width="1" opacity="0.5333333333333333" d="M 461.5 288 Q 472.1 296.4 477 310.5 L 476 310.5 L 472 301.5 L 461.5 288 Z " /><path fill="rgb(197,0,25)" stroke="rgb(197,0,25)" stroke-width="1" opacity="0.5333333333333333" d="M 3.5 289 L 4 291.5 L 3 291.5 L 3.5 289 Z " /><path fill="rgb(197,0,25)" stroke="rgb(197,0,25)" stroke-width="1" opacity="0.5333333333333333" d="M 297.5 290 L 302 300.5 L 301 300.5 L 297.5 290 Z " /><path fill="rgb(197,0,25)" stroke="rgb(197,0,25)" stroke-width="1" opacity="0.5333333333333333" d="M 332.5 290 L 334 293.5 L 333 293.5 L 332.5 290 Z " /><path fill="rgb(197,0,25)" stroke="rgb(197,0,25)" stroke-width="1" opacity="0.5333333333333333" d="M 37.5 292 L 42 305.5 L 41 305.5 L 37 294.5 L 37.5 292 Z " /><path fill="rgb(197,0,25)" stroke="rgb(197,0,25)" stroke-width="1" opacity="0.5333333333333333" d="M 4.5 293 L 7 303.5 L 6 303.5 L 4.5 293 Z " /><path fill="rgb(197,0,25)" stroke="rgb(197,0,25)" stroke-width="1" opacity="0.5333333333333333" d="M 302.5 302 L 307 312.5 L 306 312.5 L 302.5 302 Z " /><path fill="rgb(197,0,25)" stroke="rgb(197,0,25)" stroke-width="1" opacity="0.5333333333333333" d="M 337.5 302 L 339 305.5 L 338 305.5 L 337.5 302 Z " /><path fill="rgb(197,0,25)" stroke="rgb(197,0,25)" stroke-width="1" opacity="0.5333333333333333" d="M 42.5 307 L 46 314.5 L 45 314.5 L 42.5 307 Z " /><path fill="rgb(197,0,25)" stroke="rgb(197,0,25)" stroke-width="1" opacity="0.5333333333333333" d="M 339.5 307 L 341 310.5 L 340 310.5 L 339.5 307 Z " /><path fill="rgb(197,0,25)" stroke="rgb(197,0,25)" stroke-width="1" opacity="0.5333333333333333" d="M 8.5 308 L 12 317.5 L 11 317.5 L 8.5 308 Z " /><path fill="rgb(197,0,25)" stroke="rgb(197,0,25)" stroke-width="1" opacity="0.5333333333333333" d="M 510.5 310 L 511 312.5 L 510 312.5 L 510.5 310 Z " /><path fill="rgb(197,0,25)" stroke="rgb(197,0,25)" stroke-width="1" opacity="0.5333333333333333" d="M 477.5 312 L 479 317.5 L 478 317.5 L 477.5 312 Z " /><path fill="rgb(197,0,25)" stroke="rgb(197,0,25)" stroke-width="1" opacity="0.5333333333333333" d="M 307.5 314 L 309 317.5 L 308 317.5 L 307.5 314 Z " /><path fill="rgb(197,0,25)" stroke="rgb(197,0,25)" stroke-width="1" opacity="0.5333333333333333" d="M 342.5 314 L 344 317.5 L 343 317.5 L 342.5 314 Z " /><path fill="rgb(197,0,25)" stroke="rgb(197,0,25)" stroke-width="1" opacity="0.5333333333333333" d="M 511.5 315 L 512 320.5 L 511 320.5 L 511.5 315 Z " /><path fill="rgb(197,0,25)" stroke="rgb(197,0,25)" stroke-width="1" opacity="0.5333333333333333" d="M 46.5 316 L 59 336.5 L 64 341.5 L 58 336.5 L 46 317.5 L 46.5 316 Z " /><path fill="rgb(197,0,25)" stroke="rgb(197,0,25)" stroke-width="1" opacity="0.5333333333333333" d="M 12.5 319 L 16 326.5 L 15 326.5 L 12.5 319 Z " /><path fill="rgb(197,0,25)" stroke="rgb(197,0,25)" stroke-width="1" opacity="0.5333333333333333" d="M 309.5 319 L 314 329.5 L 313 329.5 L 309.5 319 Z " /><path fill="rgb(197,0,25)" stroke="rgb(197,0,25)" stroke-width="1" opacity="0.5333333333333333" d="M 344.5 319 L 346 322.5 L 345 322.5 L 344.5 319 Z " /><path fill="rgb(197,0,25)" stroke="rgb(197,0,25)" stroke-width="1" opacity="0.5333333333333333" d="M 479.5 319 L 480 336.5 L 479 336.5 L 479.5 319 Z " /><path fill="rgb(197,0,25)" stroke="rgb(197,0,25)" stroke-width="1" opacity="0.5333333333333333" d="M 16.5 328 L 20 334.5 L 18 333.5 L 16.5 328 Z " /><path fill="rgb(197,0,25)" stroke="rgb(197,0,25)" stroke-width="1" opacity="0.5333333333333333" d="M 314.5 331 L 321 346.5 L 320 346.5 L 314 332.5 L 314.5 331 Z " /><path fill="rgb(197,0,25)" stroke="rgb(197,0,25)" stroke-width="1" opacity="0.5333333333333333" d="M 349.5 331 L 351 334.5 L 350 334.5 L 349.5 331 Z " /><path fill="rgb(197,0,25)" stroke="rgb(197,0,25)" stroke-width="1" opacity="0.5333333333333333" d="M 511.5 332 L 512 339.5 L 511 339.5 L 511.5 332 Z " /><path fill="rgb(197,0,25)" stroke="rgb(197,0,25)" stroke-width="1" opacity="0.5333333333333333" d="M 20.5 336 Q 29.1 352.9 42 365.5 L 36 360.5 L 25 345.5 L 20.5 336 Z " /><path fill="rgb(197,0,25)" stroke="rgb(197,0,25)" stroke-width="1" opacity="0.5333333333333333" d="M 266.5 336 L 269 336.5 L 262.5 340 L 264.5 337 L 266.5 336 Z " /><path fill="rgb(197,0,25)" stroke="rgb(197,0,25)" stroke-width="1" opacity="0.5333333333333333" d="M 275.5 336 Q 280.3 336.3 282 339.5 L 279.5 338 L 275.5 337 L 275.5 336 Z " /><path fill="rgb(197,0,25)" stroke="rgb(197,0,25)" stroke-width="1" opacity="0.5333333333333333" d="M 478.5 338 L 479 340.5 L 478 340.5 L 478.5 338 Z " /><path fill="rgb(197,0,25)" stroke="rgb(197,0,25)" stroke-width="1" opacity="0.5333333333333333" d="M 510.5 341 L 511 345.5 L 510 345.5 L 510.5 341 Z " /><path fill="rgb(197,0,25)" stroke="rgb(197,0,25)" stroke-width="1" opacity="0.5333333333333333" d="M 259.5 342 L 258 344.5 L 256.5 349 L 256 346.5 L 259.5 342 Z " /><path fill="rgb(197,0,25)" stroke="rgb(197,0,25)" stroke-width="1" opacity="0.5333333333333333" d="M 284.5 342 Q 287.8 343.8 288 348.5 L 287 348.5 L 284.5 342 Z " /><path fill="rgb(197,0,25)" stroke="rgb(197,0,25)" stroke-width="1" opacity="0.5333333333333333" d="M 64.5 343 L 76.5 356 L 64.5 343 Z " /><path fill="rgb(197,0,25)" stroke="rgb(197,0,25)" stroke-width="1" opacity="0.5333333333333333" d="M 354.5 343 L 360 353.5 L 358 352.5 L 354 344.5 L 354.5 343 Z " /><path fill="rgb(197,0,25)" stroke="rgb(197,0,25)" stroke-width="1" opacity="0.5333333333333333" d="M 476.5 345 L 477 346.5 L 475.5 349 L 475 347.5 L 476.5 345 Z " /><path fill="rgb(197,0,25)" stroke="rgb(197,0,25)" stroke-width="1" opacity="0.5333333333333333" d="M 509.5 347 L 510 349.5 L 508.5 353 L 508 350.5 L 509.5 347 Z " /><path fill="rgb(197,0,25)" stroke="rgb(197,0,25)" stroke-width="1" opacity="0.5333333333333333" d="M 321.5 348 Q 331.2 374.8 350.5 392 L 369 404.5 L 367.5 404 Q 350.3 395.7 339 381.5 L 326 361.5 L 321.5 348 Z " /><path fill="rgb(197,0,25)" stroke="rgb(197,0,25)" stroke-width="1" opacity="0.5333333333333333" d="M 474.5 350 L 474 351.5 Q 469.6 361.6 461.5 368 L 467 361.5 L 474.5 350 Z " /><path fill="rgb(197,0,25)" stroke="rgb(197,0,25)" stroke-width="1" opacity="0.5333333333333333" d="M 256.5 355 L 260 361.5 L 257 359.5 L 256.5 355 Z " /><path fill="rgb(197,0,25)" stroke="rgb(197,0,25)" stroke-width="1" opacity="0.5333333333333333" d="M 287.5 355 L 288 357.5 L 284.5 362 L 286 359.5 L 287.5 355 Z " /><path fill="rgb(197,0,25)" stroke="rgb(197,0,25)" stroke-width="1" opacity="0.5333333333333333" d="M 360.5 355 L 371.5 368 L 390 378.5 L 388.5 379 Q 374.2 373.3 365 362.5 L 360.5 355 Z " /><path fill="rgb(197,0,25)" stroke="rgb(197,0,25)" stroke-width="1" opacity="0.5333333333333333" d="M 78.5 356 Q 89.4 367.1 105 373.5 L 103.5 373 Q 87.1 367.2 78.5 356 Z " /><path fill="rgb(197,0,25)" stroke="rgb(197,0,25)" stroke-width="1" opacity="0.5333333333333333" d="M 506.5 357 L 507 358.5 L 504.5 363 L 504 361.5 L 506.5 357 Z " /><path fill="rgb(197,0,25)" stroke="rgb(197,0,25)" stroke-width="1" opacity="0.5333333333333333" d="M 262.5 364 L 269 367.5 L 266.5 368 L 262.5 364 Z " /><path fill="rgb(197,0,25)" stroke="rgb(197,0,25)" stroke-width="1" opacity="0.5333333333333333" d="M 281.5 364 L 279.5 367 L 275.5 368 L 275.5 367 L 281.5 364 Z " /><path fill="rgb(197,0,25)" stroke="rgb(197,0,25)" stroke-width="1" opacity="0.5333333333333333" d="M 503.5 364 L 503 365.5 Q 494.8 383.8 479.5 395 L 459.5 407 L 459.5 406 Q 479.3 397.3 492 381.5 L 503.5 364 Z " /><path fill="rgb(197,0,25)" stroke="rgb(197,0,25)" stroke-width="1" opacity="0.5333333333333333" d="M 211.5 367 L 214 367.5 L 211.5 368 L 211.5 367 Z " /><path fill="rgb(197,0,25)" stroke="rgb(197,0,25)" stroke-width="1" opacity="0.5333333333333333" d="M 219.5 367 Q 224.3 367.3 226 370.5 L 223.5 369 L 219.5 368 L 219.5 367 Z " /><path fill="rgb(197,0,25)" stroke="rgb(197,0,25)" stroke-width="1" opacity="0.5333333333333333" d="M 43.5 368 Q 62.3 388.7 89 401.5 L 87.5 401 Q 60.1 388.7 43.5 368 Z " /><path fill="rgb(197,0,25)" stroke="rgb(197,0,25)" stroke-width="1" opacity="0.5333333333333333" d="M 208.5 368 L 210 368.5 L 189.5 378 L 189.5 377 L 208.5 368 Z " /><path fill="rgb(197,0,25)" stroke="rgb(197,0,25)" stroke-width="1" opacity="0.5333333333333333" d="M 459.5 368 L 456.5 372 L 451.5 375 L 452.5 373 L 459.5 368 Z " /><path fill="rgb(197,0,25)" stroke="rgb(197,0,25)" stroke-width="1" opacity="0.5333333333333333" d="M 228.5 373 Q 231.8 374.8 232 379.5 L 231 379.5 L 228.5 373 Z " /><path fill="rgb(197,0,25)" stroke="rgb(197,0,25)" stroke-width="1" opacity="0.5333333333333333" d="M 106.5 374 L 119 378.5 L 116.5 379 L 106.5 375 L 106.5 374 Z " /><path fill="rgb(197,0,25)" stroke="rgb(197,0,25)" stroke-width="1" opacity="0.5333333333333333" d="M 449.5 375 L 448.5 377 L 435.5 382 L 427.5 383 L 427.5 382 L 435.5 381 L 449.5 375 Z " /><path fill="rgb(197,0,25)" stroke="rgb(197,0,25)" stroke-width="1" opacity="0.5333333333333333" d="M 185.5 378 L 188 378.5 L 182.5 380 L 182.5 379 L 185.5 378 Z " /><path fill="rgb(197,0,25)" stroke="rgb(197,0,25)" stroke-width="1" opacity="0.5333333333333333" d="M 120.5 379 L 126 380.5 L 123.5 381 L 120.5 380 L 120.5 379 Z " /><path fill="rgb(197,0,25)" stroke="rgb(197,0,25)" stroke-width="1" opacity="0.5333333333333333" d="M 391.5 379 L 400 381.5 L 396.5 382 L 391.5 380 L 391.5 379 Z " /><path fill="rgb(197,0,25)" stroke="rgb(197,0,25)" stroke-width="1" opacity="0.5333333333333333" d="M 178.5 380 L 181 380.5 L 178.5 381 L 178.5 380 Z " /><path fill="rgb(197,0,25)" stroke="rgb(197,0,25)" stroke-width="1" opacity="0.5333333333333333" d="M 127.5 381 L 131 381.5 L 127.5 382 L 127.5 381 Z " /><path fill="rgb(197,0,25)" stroke="rgb(197,0,25)" stroke-width="1" opacity="0.5333333333333333" d="M 173.5 381 L 177 381.5 L 173.5 382 L 173.5 381 Z " /><path fill="rgb(197,0,25)" stroke="rgb(197,0,25)" stroke-width="1" opacity="0.5333333333333333" d="M 133.5 382 L 138 382.5 L 133.5 383 L 133.5 382 Z " /><path fill="rgb(197,0,25)" stroke="rgb(197,0,25)" stroke-width="1" opacity="0.5333333333333333" d="M 167.5 382 L 172 382.5 L 167.5 383 L 167.5 382 Z " /><path fill="rgb(197,0,25)" stroke="rgb(197,0,25)" stroke-width="1" opacity="0.5333333333333333" d="M 401.5 382 L 405 382.5 L 401.5 383 L 401.5 382 Z " /><path fill="rgb(197,0,25)" stroke="rgb(197,0,25)" stroke-width="1" opacity="0.5333333333333333" d="M 140.5 383 L 165 383.5 L 140.5 384 L 140.5 383 Z " /><path fill="rgb(197,0,25)" stroke="rgb(197,0,25)" stroke-width="1" opacity="0.5333333333333333" d="M 406.5 383 L 426 383.5 L 406.5 384 L 406.5 383 Z " /><path fill="rgb(197,0,25)" stroke="rgb(197,0,25)" stroke-width="1" opacity="0.5333333333333333" d="M 231.5 385 L 232 388.5 L 226.5 396 L 228 393.5 L 231.5 385 Z " /><path fill="rgb(197,0,25)" stroke="rgb(197,0,25)" stroke-width="1" opacity="0.5333333333333333" d="M 224.5 396 L 223.5 398 L 203.5 407 L 203.5 406 L 224.5 396 Z " /><path fill="rgb(197,0,25)" stroke="rgb(197,0,25)" stroke-width="1" opacity="0.5333333333333333" d="M 92.5 403 L 96 404.5 L 94.5 405 L 92.5 403 Z " /><path fill="rgb(197,0,25)" stroke="rgb(197,0,25)" stroke-width="1" opacity="0.5333333333333333" d="M 97.5 405 L 104 407.5 L 102.5 408 L 97.5 406 L 97.5 405 Z " /><path fill="rgb(197,0,25)" stroke="rgb(197,0,25)" stroke-width="1" opacity="0.5333333333333333" d="M 370.5 405 L 390 412.5 L 387.5 413 L 370.5 406 L 370.5 405 Z " /><path fill="rgb(197,0,25)" stroke="rgb(197,0,25)" stroke-width="1" opacity="0.5333333333333333" d="M 200.5 407 L 202 407.5 L 194.5 410 L 194.5 409 L 200.5 407 Z " /><path fill="rgb(197,0,25)" stroke="rgb(197,0,25)" stroke-width="1" opacity="0.5333333333333333" d="M 456.5 407 L 458 407.5 L 454.5 409 L 454.5 408 L 456.5 407 Z " /><path fill="rgb(197,0,25)" stroke="rgb(197,0,25)" stroke-width="1" opacity="0.5333333333333333" d="M 105.5 408 L 110 409.5 L 107.5 410 L 105.5 408 Z " /><path fill="rgb(197,0,25)" stroke="rgb(197,0,25)" stroke-width="1" opacity="0.5333333333333333" d="M 451.5 409 L 453 409.5 Q 446.9 413.4 437.5 414 L 437.5 413 Q 446.1 412.6 451.5 409 Z " /><path fill="rgb(197,0,25)" stroke="rgb(197,0,25)" stroke-width="1" opacity="0.5333333333333333" d="M 111.5 410 L 114 410.5 L 111.5 411 L 111.5 410 Z " /><path fill="rgb(197,0,25)" stroke="rgb(197,0,25)" stroke-width="1" opacity="0.5333333333333333" d="M 115.5 411 L 121 412.5 L 118.5 413 L 115.5 412 L 115.5 411 Z " /><path fill="rgb(197,0,25)" stroke="rgb(197,0,25)" stroke-width="1" opacity="0.5333333333333333" d="M 187.5 411 L 190 411.5 L 187.5 412 L 187.5 411 Z " /><path fill="rgb(197,0,25)" stroke="rgb(197,0,25)" stroke-width="1" opacity="0.5333333333333333" d="M 183.5 412 L 186 412.5 L 183.5 413 L 183.5 412 Z " /><path fill="rgb(197,0,25)" stroke="rgb(197,0,25)" stroke-width="1" opacity="0.5333333333333333" d="M 123.5 413 L 127 413.5 L 123.5 414 L 123.5 413 Z " /><path fill="rgb(197,0,25)" stroke="rgb(197,0,25)" stroke-width="1" opacity="0.5333333333333333" d="M 178.5 413 L 182 413.5 L 178.5 414 L 178.5 413 Z " /><path fill="rgb(197,0,25)" stroke="rgb(197,0,25)" stroke-width="1" opacity="0.5333333333333333" d="M 391.5 413 L 395 413.5 L 391.5 414 L 391.5 413 Z " /><path fill="rgb(197,0,25)" stroke="rgb(197,0,25)" stroke-width="1" opacity="0.5333333333333333" d="M 129.5 414 L 134 414.5 L 129.5 415 L 129.5 414 Z " /><path fill="rgb(197,0,25)" stroke="rgb(197,0,25)" stroke-width="1" opacity="0.5333333333333333" d="M 171.5 414 L 176 414.5 L 171.5 415 L 171.5 414 Z " /><path fill="rgb(197,0,25)" stroke="rgb(197,0,25)" stroke-width="1" opacity="0.5333333333333333" d="M 396.5 414 L 400 414.5 L 396.5 415 L 396.5 414 Z " /><path fill="rgb(197,0,25)" stroke="rgb(197,0,25)" stroke-width="1" opacity="0.5333333333333333" d="M 431.5 414 L 436 414.5 L 431.5 415 L 431.5 414 Z " /><path fill="rgb(197,0,25)" stroke="rgb(197,0,25)" stroke-width="1" opacity="0.5333333333333333" d="M 135.5 415 L 147 415.5 L 135.5 416 L 135.5 415 Z " /><path fill="rgb(197,0,25)" stroke="rgb(197,0,25)" stroke-width="1" opacity="0.5333333333333333" d="M 161.5 415 L 169 415.5 L 161.5 416 L 161.5 415 Z " /><path fill="rgb(197,0,25)" stroke="rgb(197,0,25)" stroke-width="1" opacity="0.5333333333333333" d="M 402.5 415 L 409 415.5 L 402.5 416 L 402.5 415 Z " /><path fill="rgb(197,0,25)" stroke="rgb(197,0,25)" stroke-width="1" opacity="0.5333333333333333" d="M 421.5 415 L 429 415.5 L 421.5 416 L 421.5 415 Z " /><path fill="rgb(197,0,26)" stroke="rgb(197,0,26)" stroke-width="1" opacity="0.996078431372549" d="M 147.5 96 L 176.5 98 Q 193.5 101 207.5 107 Q 240 121 262 145.5 Q 276.4 162.1 287 182.5 L 354 344.5 Q 360.4 359.1 371.5 369 Q 381.9 377.6 396.5 382 L 406.5 384 L 425.5 384 L 435.5 382 L 448.5 377 Q 459.9 370.9 468 361.5 Q 475.4 352.9 479 340.5 Q 481.7 332.2 480 319.5 Q 475.3 299.3 461.5 288 Q 452.6 280.4 440.5 276 L 384.5 258 Q 365.4 249.6 353 234.5 Q 336.7 217.3 336 184.5 L 337 183.5 L 338 170.5 L 346 151.5 Q 353.7 138.2 365.5 129 Q 377.3 119.8 393.5 115 L 402.5 113 L 422.5 112 L 438.5 115 L 457.5 123 Q 470.6 130.9 480 142.5 L 491 161.5 L 494 171.5 L 494 180.5 L 487.5 189 Q 484.3 192.8 476.5 192 Q 468.4 190.6 465 184.5 Q 461.4 166.1 449.5 156 L 432.5 146 L 424.5 144 L 408.5 144 Q 388.4 147.4 378 160.5 Q 366.4 171.4 368 195.5 Q 372.1 211.9 383.5 221 L 396.5 229 L 438.5 243 L 441.5 243 L 462.5 251 Q 480.5 260.5 493 275.5 Q 510.8 295.2 512 331.5 L 511 332.5 L 510 346.5 L 504 363.5 Q 494.5 381.5 479.5 394 Q 465 406 444.5 412 L 430.5 415 L 409.5 416 L 408.5 415 L 400.5 415 L 390.5 413 L 369.5 405 Q 352.3 395.7 340 381.5 L 326 359.5 L 258 194.5 Q 245.4 170.6 225.5 154 Q 209.5 140.5 187.5 133 L 164.5 128 L 140.5 128 L 116.5 133 L 94.5 143 Q 77 153.5 64 168.5 Q 45.6 188.1 37 217.5 L 32 241.5 L 32 270.5 L 37 294.5 L 46 317.5 Q 57.8 340.2 76.5 356 Q 93.1 370.9 116.5 379 L 140.5 384 L 164.5 384 L 184.5 380 Q 199 375.5 210.5 368 L 218.5 367 L 228 372.5 Q 232 376.5 232 384.5 Q 230.6 392.1 225.5 396 Q 209.8 405.3 190.5 411 L 170.5 415 L 147.5 416 L 146.5 415 L 134.5 415 L 133.5 414 L 121.5 413 L 91.5 403 Q 62.4 389.1 42 366.5 Q 23.5 346 12 318.5 L 3 288.5 L 2 276.5 L 1 275.5 L 0 251.5 L 1 250.5 L 1 236.5 L 2 235.5 L 3 223.5 L 7 207.5 L 16 184.5 Q 29.7 156.2 51.5 136 Q 68.8 119.8 91.5 109 L 121.5 99 L 133.5 98 L 134.5 97 L 146.5 97 L 147.5 96 Z " /><path fill="rgb(197,0,26)" stroke="rgb(197,0,26)" stroke-width="1" opacity="0.996078431372549" d="M 269.5 336 Q 279.7 335.8 284 341.5 L 288 349.5 L 288 354.5 L 282.5 364 L 274.5 368 L 269.5 368 L 260 362.5 L 256 354.5 L 256 349.5 L 261.5 340 L 269.5 336 Z " /></svg>